<svg viewBox="0 0 306 59" version="1.1" xmlns="http://www.w3.org/2000/svg" xmlns:xlink="http://www.w3.org/1999/xlink">
<title>[Linetime]</title>
<desc>Created using Figma</desc>
<g id="Canvas" transform="translate(-2621 -1604)">
<g id="[Linetime]">
<use xlink:href="#path0_fill" transform="translate(2621.01 1604.15)" fill="#FFFFFF"/>
<use xlink:href="#path1_fill" transform="translate(2621.01 1604.15)" fill="#FFFFFF"/>
<use xlink:href="#path2_fill" transform="translate(2621.01 1604.15)" fill="#FFFFFF"/>
<use xlink:href="#path3_fill" transform="translate(2621.01 1604.15)" fill="#FFFFFF"/>
<use xlink:href="#path4_fill" transform="translate(2621.01 1604.15)" fill="#FFFFFF"/>
<use xlink:href="#path5_fill" transform="translate(2621.01 1604.15)" fill="#FFFFFF"/>
<use xlink:href="#path6_fill" transform="translate(2621.01 1604.15)" fill="#FFFFFF"/>
<use xlink:href="#path7_fill" transform="translate(2621.01 1604.15)" fill="#FFFFFF"/>
<use xlink:href="#path8_fill" transform="translate(2621.01 1604.15)" fill="#FFFFFF"/>
<use xlink:href="#path9_fill" transform="translate(2621.01 1604.15)" fill="#FFFFFF"/>
</g>
</g>
<defs>
<path id="path0_fill" d="M 16.576 52.096C 17.472 52.096 18.1973 52.3733 18.752 52.928C 19.3493 53.5253 19.648 54.272 19.648 55.168C 19.648 56.0213 19.3493 56.7253 18.752 57.28C 18.1973 57.8773 17.472 58.176 16.576 58.176L 3.072 58.176C 2.176 58.176 1.42933 57.8773 0.832 57.28C 0.277333 56.7253 0 56 0 55.104L 0 4.288C 0 3.392 0.277333 2.66667 0.832 2.112C 1.42933 1.51467 2.176 1.216 3.072 1.216L 16.576 1.216C 17.472 1.216 18.1973 1.51467 18.752 2.112C 19.3493 2.66667 19.648 3.392 19.648 4.288C 19.648 5.14133 19.3493 5.86667 18.752 6.464C 18.1973 7.01867 17.472 7.296 16.576 7.296L 7.36 7.296L 7.36 52.096L 16.576 52.096Z"/>
<path id="path1_fill" d="M 50.4465 38.528C 51.5558 38.528 52.4732 38.8907 53.1985 39.616C 53.9665 40.2987 54.3505 41.1947 54.3505 42.304C 54.3505 43.3707 53.9665 44.2667 53.1985 44.992C 52.4732 45.6747 51.5558 46.016 50.4465 46.016L 29.6465 46.016C 28.5372 46.016 27.5985 45.6533 26.8305 44.928C 26.1052 44.16 25.7425 43.2213 25.7425 42.112L 25.7425 5.12C 25.7425 4.01067 26.1265 3.09333 26.8945 2.368C 27.6625 1.6 28.6438 1.216 29.8385 1.216C 30.9052 1.216 31.8225 1.6 32.5905 2.368C 33.3585 3.09333 33.7425 4.01067 33.7425 5.12L 33.7425 38.528L 50.4465 38.528Z"/>
<path id="path2_fill" d="M 68.272 42.112C 68.272 43.2213 67.9093 44.16 67.184 44.928C 66.4587 45.6533 65.5413 46.016 64.432 46.016C 63.3227 46.016 62.4053 45.6533 61.68 44.928C 60.9547 44.16 60.592 43.2213 60.592 42.112L 60.592 15.68C 60.592 14.5707 60.9547 13.6533 61.68 12.928C 62.4053 12.16 63.3227 11.776 64.432 11.776C 65.5413 11.776 66.4587 12.16 67.184 12.928C 67.9093 13.6533 68.272 14.5707 68.272 15.68L 68.272 42.112ZM 64.368 7.616C 62.9173 7.616 61.8933 7.38133 61.296 6.912C 60.6987 6.44267 60.4 5.61067 60.4 4.416L 60.4 3.2C 60.4 2.00533 60.72 1.17333 61.36 0.704C 62 0.234667 63.024 0 64.432 0C 65.9253 0 66.9707 0.234667 67.568 0.704C 68.1653 1.17333 68.464 2.00533 68.464 3.2L 68.464 4.416C 68.464 5.65333 68.144 6.50667 67.504 6.976C 66.9067 7.40267 65.8613 7.616 64.368 7.616Z"/>
<path id="path3_fill" d="M 94.469 11.136C 98.821 11.136 101.829 12.4373 103.493 15.04C 105.157 17.6 105.989 21.1627 105.989 25.728L 105.989 42.112C 105.989 43.2213 105.626 44.16 104.901 44.928C 104.176 45.6533 103.258 46.016 102.149 46.016C 101.04 46.016 100.122 45.6533 99.397 44.928C 98.6717 44.16 98.309 43.2213 98.309 42.112L 98.309 25.728C 98.309 23.3813 97.8183 21.5467 96.837 20.224C 95.8557 18.8587 94.1703 18.176 91.781 18.176C 89.3063 18.176 87.365 18.9013 85.957 20.352C 84.549 21.76 83.845 23.552 83.845 25.728L 83.845 42.112C 83.845 43.2213 83.4823 44.16 82.757 44.928C 82.0317 45.6533 81.1143 46.016 80.005 46.016C 78.8957 46.016 77.9783 45.6533 77.253 44.928C 76.5277 44.16 76.165 43.2213 76.165 42.112L 76.165 15.68C 76.165 14.5707 76.5277 13.6533 77.253 12.928C 77.9783 12.16 78.8957 11.776 80.005 11.776C 81.1143 11.776 82.0317 12.16 82.757 12.928C 83.4823 13.6533 83.845 14.5707 83.845 15.68L 83.845 16.768C 84.997 15.232 86.4903 13.9093 88.325 12.8C 90.2023 11.6907 92.2503 11.136 94.469 11.136Z"/>
<path id="path4_fill" d="M 145.01 28.096C 144.967 29.12 144.562 29.952 143.794 30.592C 143.026 31.232 142.13 31.552 141.106 31.552L 119.986 31.552C 120.498 34.0693 121.671 36.0533 123.506 37.504C 125.341 38.912 127.41 39.616 129.714 39.616C 131.463 39.616 132.829 39.4667 133.81 39.168C 134.791 38.8267 135.559 38.4853 136.114 38.144C 136.711 37.76 137.117 37.504 137.33 37.376C 138.098 36.992 138.823 36.8 139.506 36.8C 140.402 36.8 141.17 37.12 141.81 37.76C 142.45 38.4 142.77 39.1467 142.77 40C 142.77 41.152 142.173 42.1973 140.978 43.136C 139.783 44.1173 138.183 44.9493 136.178 45.632C 134.173 46.3147 132.146 46.656 130.098 46.656C 126.514 46.656 123.378 45.9093 120.69 44.416C 118.045 42.9227 115.997 40.8747 114.546 38.272C 113.095 35.6267 112.37 32.6613 112.37 29.376C 112.37 25.7067 113.138 22.4853 114.674 19.712C 116.21 16.9387 118.237 14.8267 120.754 13.376C 123.271 11.8827 125.959 11.136 128.818 11.136C 131.634 11.136 134.279 11.904 136.754 13.44C 139.271 14.976 141.277 17.0453 142.77 19.648C 144.263 22.2507 145.01 25.0667 145.01 28.096ZM 128.818 18.176C 123.869 18.176 120.946 20.5013 120.05 25.152L 136.818 25.152L 136.818 24.704C 136.647 22.912 135.773 21.376 134.194 20.096C 132.615 18.816 130.823 18.176 128.818 18.176Z"/>
<path id="path5_fill" d="M 167.927 38.784C 168.524 38.784 169.058 39.0827 169.527 39.68C 170.039 40.2347 170.295 40.9813 170.295 41.92C 170.295 43.072 169.655 44.0533 168.375 44.864C 167.138 45.632 165.73 46.016 164.151 46.016C 161.506 46.016 159.266 45.4613 157.431 44.352C 155.639 43.2 154.743 40.7893 154.743 37.12L 154.743 19.456L 151.799 19.456C 150.775 19.456 149.922 19.1147 149.239 18.432C 148.556 17.7493 148.215 16.896 148.215 15.872C 148.215 14.8907 148.556 14.08 149.239 13.44C 149.922 12.7573 150.775 12.416 151.799 12.416L 154.743 12.416L 154.743 8.32C 154.743 7.21067 155.106 6.29333 155.831 5.568C 156.599 4.8 157.538 4.416 158.647 4.416C 159.714 4.416 160.61 4.8 161.335 5.568C 162.06 6.29333 162.423 7.21067 162.423 8.32L 162.423 12.416L 166.967 12.416C 167.991 12.416 168.844 12.7573 169.527 13.44C 170.21 14.1227 170.551 14.976 170.551 16C 170.551 16.9813 170.21 17.8133 169.527 18.496C 168.844 19.136 167.991 19.456 166.967 19.456L 162.423 19.456L 162.423 36.8C 162.423 37.696 162.658 38.3573 163.127 38.784C 163.596 39.168 164.236 39.36 165.047 39.36C 165.388 39.36 165.858 39.2747 166.455 39.104C 166.967 38.8907 167.458 38.784 167.927 38.784Z"/>
<path id="path6_fill" d="M 184.835 42.112C 184.835 43.2213 184.472 44.16 183.747 44.928C 183.021 45.6533 182.104 46.016 180.995 46.016C 179.885 46.016 178.968 45.6533 178.242 44.928C 177.517 44.16 177.154 43.2213 177.154 42.112L 177.154 15.68C 177.154 14.5707 177.517 13.6533 178.242 12.928C 178.968 12.16 179.885 11.776 180.995 11.776C 182.104 11.776 183.021 12.16 183.747 12.928C 184.472 13.6533 184.835 14.5707 184.835 15.68L 184.835 42.112ZM 180.93 7.616C 179.48 7.616 178.456 7.38133 177.859 6.912C 177.261 6.44267 176.962 5.61067 176.962 4.416L 176.962 3.2C 176.962 2.00533 177.283 1.17333 177.923 0.704C 178.563 0.234667 179.587 0 180.995 0C 182.488 0 183.533 0.234667 184.13 0.704C 184.728 1.17333 185.027 2.00533 185.027 3.2L 185.027 4.416C 185.027 5.65333 184.706 6.50667 184.066 6.976C 183.469 7.40267 182.424 7.616 180.93 7.616Z"/>
<path id="path7_fill" d="M 232.215 11.136C 236.439 11.136 239.362 12.4373 240.984 15.04C 242.605 17.6 243.415 21.1627 243.415 25.728L 243.415 42.112C 243.415 43.2213 243.053 44.16 242.327 44.928C 241.602 45.6533 240.685 46.016 239.576 46.016C 238.466 46.016 237.549 45.6533 236.824 44.928C 236.098 44.16 235.736 43.2213 235.736 42.112L 235.736 25.728C 235.736 23.3813 235.266 21.5467 234.327 20.224C 233.431 18.8587 231.831 18.176 229.527 18.176C 227.138 18.176 225.261 18.9013 223.895 20.352C 222.573 21.76 221.911 23.552 221.911 25.728L 221.911 42.112C 221.911 43.2213 221.549 44.16 220.824 44.928C 220.098 45.6533 219.181 46.016 218.072 46.016C 216.962 46.016 216.045 45.6533 215.32 44.928C 214.594 44.16 214.232 43.2213 214.232 42.112L 214.232 25.728C 214.232 23.3813 213.762 21.5467 212.824 20.224C 211.928 18.8587 210.327 18.176 208.023 18.176C 205.634 18.176 203.757 18.9013 202.391 20.352C 201.069 21.76 200.408 23.552 200.408 25.728L 200.408 42.112C 200.408 43.2213 200.045 44.16 199.32 44.928C 198.594 45.6533 197.677 46.016 196.568 46.016C 195.458 46.016 194.541 45.6533 193.816 44.928C 193.09 44.16 192.727 43.2213 192.727 42.112L 192.727 15.68C 192.727 14.5707 193.09 13.6533 193.816 12.928C 194.541 12.16 195.458 11.776 196.568 11.776C 197.677 11.776 198.594 12.16 199.32 12.928C 200.045 13.6533 200.408 14.5707 200.408 15.68L 200.408 16.704C 201.56 15.168 203.01 13.8667 204.76 12.8C 206.552 11.6907 208.536 11.136 210.712 11.136C 216.088 11.136 219.522 13.4827 221.016 18.176C 221.997 16.384 223.469 14.7627 225.432 13.312C 227.437 11.8613 229.698 11.136 232.215 11.136Z"/>
<path id="path8_fill" d="M 282.448 28.096C 282.405 29.12 282 29.952 281.232 30.592C 280.464 31.232 279.567 31.552 278.543 31.552L 257.423 31.552C 257.935 34.0693 259.109 36.0533 260.944 37.504C 262.778 38.912 264.847 39.616 267.151 39.616C 268.901 39.616 270.266 39.4667 271.247 39.168C 272.229 38.8267 272.997 38.4853 273.552 38.144C 274.149 37.76 274.554 37.504 274.767 37.376C 275.535 36.992 276.261 36.8 276.944 36.8C 277.84 36.8 278.607 37.12 279.247 37.76C 279.887 38.4 280.207 39.1467 280.207 40C 280.207 41.152 279.61 42.1973 278.415 43.136C 277.221 44.1173 275.621 44.9493 273.616 45.632C 271.61 46.3147 269.583 46.656 267.535 46.656C 263.951 46.656 260.816 45.9093 258.128 44.416C 255.482 42.9227 253.434 40.8747 251.984 38.272C 250.533 35.6267 249.807 32.6613 249.807 29.376C 249.807 25.7067 250.575 22.4853 252.111 19.712C 253.647 16.9387 255.674 14.8267 258.191 13.376C 260.709 11.8827 263.397 11.136 266.255 11.136C 269.071 11.136 271.717 11.904 274.191 13.44C 276.709 14.976 278.714 17.0453 280.207 19.648C 281.701 22.2507 282.448 25.0667 282.448 28.096ZM 266.255 18.176C 261.306 18.176 258.383 20.5013 257.487 25.152L 274.255 25.152L 274.255 24.704C 274.085 22.912 273.21 21.376 271.632 20.096C 270.053 18.816 268.261 18.176 266.255 18.176Z"/>
<path id="path9_fill" d="M 302.548 1.216C 303.444 1.216 304.17 1.51467 304.724 2.112C 305.322 2.66667 305.621 3.392 305.621 4.288L 305.621 55.104C 305.621 56 305.322 56.7253 304.724 57.28C 304.17 57.8773 303.444 58.176 302.548 58.176L 289.044 58.176C 288.148 58.176 287.402 57.8773 286.805 57.28C 286.25 56.7253 285.973 56 285.973 55.104C 285.973 54.2507 286.25 53.5253 286.805 52.928C 287.402 52.3733 288.148 52.096 289.044 52.096L 298.26 52.096L 298.26 7.296L 289.044 7.296C 288.148 7.296 287.402 7.01867 286.805 6.464C 286.25 5.86667 285.973 5.12 285.973 4.224C 285.973 3.37067 286.25 2.66667 286.805 2.112C 287.402 1.51467 288.148 1.216 289.044 1.216L 302.548 1.216Z"/>
</defs>
</svg>
