<svg viewBox="0 0 60 60" version="1.1" xmlns="http://www.w3.org/2000/svg" xmlns:xlink="http://www.w3.org/1999/xlink">
<title>checkmark</title>
<desc>Created using Figma</desc>
<g id="Canvas" transform="translate(-1208 607)">
<rect x="1208" y="-607" width="60" height="60" fill="#EEEFEF"/>
<g id="checkmark">
<g id="Ellipse 2.2">
<use xlink:href="#path0_fill" transform="translate(1213.25 -602)" fill="#FFFFFF"/>
<mask id="mask0_outline_out">
<rect id="mask0_outline_inv" fill="white" x="-5" y="-5" width="60" height="60" transform="translate(1213.25 -602)"/>
<use xlink:href="#path0_fill" fill="black" transform="translate(1213.25 -602)"/>
</mask>
<g mask="url(#mask0_outline_out)">
<use xlink:href="#path1_stroke_2x" transform="translate(1213.25 -602)" fill="#2D9CDB"/>
</g>
</g>
<g id="Rectangle">
<use xlink:href="#path2_fill" transform="matrix(0.619749 0.7848 -0.764367 0.644781 1253.43 -588.754)" fill="#F2C94C"/>
</g>
<g id="Rectangle">
<use xlink:href="#path3_fill" transform="matrix(0.764367 -0.644781 0.619749 0.7848 1216 -573.968)" fill="#F2C94C"/>
</g>
</g>
</g>
<defs>
<path id="path0_fill" d="M 49.5 25C 49.5 38.8071 38.419 50 24.75 50C 11.081 50 0 38.8071 0 25C 0 11.1929 11.081 0 24.75 0C 38.419 0 49.5 11.1929 49.5 25Z"/>
<path id="path1_stroke_2x" d="M 44.5 25C 44.5 36.0932 35.6104 45 24.75 45L 24.75 55C 41.2277 55 54.5 41.521 54.5 25L 44.5 25ZM 24.75 45C 13.8896 45 5 36.0932 5 25L -5 25C -5 41.521 8.27227 55 24.75 55L 24.75 45ZM 5 25C 5 13.9068 13.8896 5 24.75 5L 24.75 -5C 8.27227 -5 -5 8.47895 -5 25L 5 25ZM 24.75 5C 35.6104 5 44.5 13.9068 44.5 25L 54.5 25C 54.5 8.47895 41.2277 -5 24.75 -5L 24.75 5Z"/>
<path id="path2_fill" d="M 0 0L 6.88254 0L 6.88254 38.1193L 0 38.1193L 0 0Z"/>
<path id="path3_fill" d="M 1.62796e-05 -1.19916e-05L 6.61726 -1.19916e-05L 6.61726 19.2799L 1.62796e-05 19.2799L 1.62796e-05 -1.19916e-05Z"/>
</defs>
</svg>
