<svg viewBox="0 0 68 68" version="1.1" xmlns="http://www.w3.org/2000/svg" xmlns:xlink="http://www.w3.org/1999/xlink">
<title>checkmark</title>
<desc>Created using Figma</desc>
<g id="Canvas" transform="translate(-1204 611)">
<g id="checkmark">
<g id="Ellipse 2.2" filter="url(#filter0_d)">
<use xlink:href="#path0_fill" transform="translate(1213.25 -602)" fill="#134663"/>
<mask id="mask0_outline_out">
<rect id="mask0_outline_inv" fill="white" x="-5" y="-5" width="60" height="60" transform="translate(1213.25 -602)"/>
<use xlink:href="#path0_fill" fill="black" transform="translate(1213.25 -602)"/>
</mask>
<g mask="url(#mask0_outline_out)">
<use xlink:href="#path1_stroke_2x" transform="translate(1213.25 -602)" fill="#2D9CDB"/>
</g>
</g>
<g id="Vector">
<use xlink:href="#path2_fill" transform="translate(1219.64 -590.411)" fill="#FFE769"/>
<use xlink:href="#path3_fill" transform="translate(1219.64 -590.411)" fill="#FFE769"/>
</g>
</g>
</g>
<defs>
<filter id="filter0_d" filterUnits="userSpaceOnUse" x="1204" y="-611" width="68" height="68" color-interpolation-filters="sRGB">
<feFlood flood-opacity="0" result="BackgroundImageFix"/>
<feColorMatrix in="SourceAlpha" type="matrix" values="0 0 0 0 0 0 0 0 0 0 0 0 0 0 0 0 0 0 255 0"/>
<feOffset dx="0" dy="0"/>
<feGaussianBlur stdDeviation="2"/>
<feColorMatrix type="matrix" values="0 0 0 0 0 0 0 0 0 0 0 0 0 0 0 0 0 0 0.25 0"/>
<feBlend mode="normal" in2="BackgroundImageFix" result="effect1_dropShadow"/>
<feBlend mode="normal" in="SourceGraphic" in2="effect1_dropShadow" result="shape"/>
</filter>
<path id="path0_fill" d="M 49.5 25C 49.5 38.8071 38.419 50 24.75 50C 11.081 50 0 38.8071 0 25C 0 11.1929 11.081 0 24.75 0C 38.419 0 49.5 11.1929 49.5 25Z"/>
<path id="path1_stroke_2x" d="M 44.5 25C 44.5 36.0932 35.6104 45 24.75 45L 24.75 55C 41.2277 55 54.5 41.521 54.5 25L 44.5 25ZM 24.75 45C 13.8896 45 5 36.0932 5 25L -5 25C -5 41.521 8.27227 55 24.75 55L 24.75 45ZM 5 25C 5 13.9068 13.8896 5 24.75 5L 24.75 -5C 8.27227 -5 -5 8.47895 -5 25L 5 25ZM 24.75 5C 35.6104 5 44.5 13.9068 44.5 25L 54.5 25C 54.5 8.47895 41.2277 -5 24.75 -5L 24.75 5Z"/>
<path id="path2_fill" d="M 33.1931 1.9508e-05L 38.0706 5.89919L 10.3683 29.0188L 5.49083 23.1196L 33.1931 1.9508e-05Z"/>
<path id="path3_fill" d="M 0 16.4786L 5.49083 11.8469L 15.6532 24.5607L 10.3683 29.0188L 0 16.4786Z"/>
</defs>
</svg>
