<svg viewBox="0 0 60 60" version="1.1" xmlns="http://www.w3.org/2000/svg" xmlns:xlink="http://www.w3.org/1999/xlink">
<title>checkmark</title>
<desc>Created using Figma</desc>
<g id="Canvas" transform="translate(-1208 607)">
<rect x="1208" y="-607" width="60" height="60" fill="#EEEFEF"/>
<g id="checkmark">
<g id="Ellipse 2.2">
<use xlink:href="#path0_fill" transform="translate(1213.25 -602)" fill="#FFFFFF"/>
<mask id="mask0_outline_out">
<rect id="mask0_outline_inv" fill="white" x="-5" y="-5" width="60" height="60" transform="translate(1213.25 -602)"/>
<use xlink:href="#path0_fill" fill="black" transform="translate(1213.25 -602)"/>
</mask>
<g mask="url(#mask0_outline_out)">
<use xlink:href="#path1_stroke_2x" transform="translate(1213.25 -602)" fill="#2D9CDB"/>
</g>
</g>
<g id="Star">
<use xlink:href="#path2_fill" transform="translate(1216 -599)" fill="#F2C94C"/>
</g>
</g>
</g>
<defs>
<path id="path0_fill" d="M 49.5 25C 49.5 38.8071 38.419 50 24.75 50C 11.081 50 0 38.8071 0 25C 0 11.1929 11.081 0 24.75 0C 38.419 0 49.5 11.1929 49.5 25Z"/>
<path id="path1_stroke_2x" d="M 44.5 25C 44.5 36.0932 35.6104 45 24.75 45L 24.75 55C 41.2277 55 54.5 41.521 54.5 25L 44.5 25ZM 24.75 45C 13.8896 45 5 36.0932 5 25L -5 25C -5 41.521 8.27227 55 24.75 55L 24.75 45ZM 5 25C 5 13.9068 13.8896 5 24.75 5L 24.75 -5C 8.27227 -5 -5 8.47895 -5 25L 5 25ZM 24.75 5C 35.6104 5 44.5 13.9068 44.5 25L 54.5 25C 54.5 8.47895 41.2277 -5 24.75 -5L 24.75 5Z"/>
<path id="path2_fill" d="M 22.0001 0L 26.9394 15.2017L 42.9234 15.2017L 29.9921 24.5968L 34.9314 39.7985L 22.0001 30.4033L 9.06875 39.7985L 14.0081 24.5968L 1.07676 15.2017L 17.0607 15.2017L 22.0001 0Z"/>
</defs>
</svg>
