<svg viewBox="0 0 561 564" version="1.1" xmlns="http://www.w3.org/2000/svg" xmlns:xlink="http://www.w3.org/1999/xlink">
<title>logo</title>
<desc>Created using Figma</desc>
<g id="Canvas" transform="matrix(3 0 0 3 -7917 -2976)">
<g id="logo">
<g id="Rectangle" filter="url(#filter0_d)">
<use xlink:href="#path0_fill" transform="translate(2644.05 995.676)" fill="url(#paint0_linear)"/>
</g>
<g id="Subtract">
<use xlink:href="#path1_fill" transform="translate(2644.05 995.676)" fill="url(#paint1_linear)"/>
</g>
<g id="LT" filter="url(#filter1_d)">
<use xlink:href="#path2_fill" transform="translate(2687.26 1058.29)" fill="url(#paint2_linear)"/>
<use xlink:href="#path3_fill" transform="translate(2687.26 1058.29)" fill="url(#paint3_linear)"/>
</g>
<g id="]" filter="url(#filter2_i)">
<use xlink:href="#path4_fill" transform="translate(2783.35 1047.4)" fill="#1B76AC"/>
</g>
<g id="]" filter="url(#filter3_i)">
<use xlink:href="#path4_fill" transform="matrix(-1 0 0 1 2681.38 1047.4)" fill="#1B76AC"/>
</g>
</g>
</g>
<defs>
<filter id="filter0_d" filterUnits="userSpaceOnUse" x="2639" y="992" width="187" height="188" color-interpolation-filters="sRGB">
<feFlood flood-opacity="0" result="BackgroundImageFix"/>
<feColorMatrix in="SourceAlpha" type="matrix" values="0 0 0 0 0 0 0 0 0 0 0 0 0 0 0 0 0 0 255 0"/>
<feOffset dx="0" dy="2"/>
<feGaussianBlur stdDeviation="2.5"/>
<feColorMatrix type="matrix" values="0 0 0 0 0 0 0 0 0 0 0 0 0 0 0 0 0 0 0.4 0"/>
<feBlend mode="normal" in2="BackgroundImageFix" result="effect1_dropShadow"/>
<feBlend mode="normal" in="SourceGraphic" in2="effect1_dropShadow" result="shape"/>
</filter>
<filter id="filter1_d" filterUnits="userSpaceOnUse" x="2685" y="1056" width="92" height="62" color-interpolation-filters="sRGB">
<feFlood flood-opacity="0" result="BackgroundImageFix"/>
<feColorMatrix in="SourceAlpha" type="matrix" values="0 0 0 0 0 0 0 0 0 0 0 0 0 0 0 0 0 0 255 0"/>
<feOffset dx="0" dy="0"/>
<feGaussianBlur stdDeviation="1"/>
<feColorMatrix type="matrix" values="0 0 0 0 0 0 0 0 0 0 0 0 0 0 0 0 0 0 0.25 0"/>
<feBlend mode="normal" in2="BackgroundImageFix" result="effect1_dropShadow"/>
<feBlend mode="normal" in="SourceGraphic" in2="effect1_dropShadow" result="shape"/>
</filter>
<filter id="filter2_i" filterUnits="userSpaceOnUse" x="2783" y="1047" width="23" height="83" color-interpolation-filters="sRGB">
<feFlood flood-opacity="0" result="BackgroundImageFix"/>
<feBlend mode="normal" in="SourceGraphic" in2="BackgroundImageFix" result="shape"/>
<feColorMatrix in="SourceAlpha" type="matrix" values="0 0 0 0 0 0 0 0 0 0 0 0 0 0 0 0 0 0 255 0" result="hardAlpha"/>
<feOffset dx="0" dy="4"/>
<feGaussianBlur stdDeviation="2"/>
<feComposite in2="hardAlpha" operator="arithmetic" k2="-1" k3="1"/>
<feColorMatrix type="matrix" values="0 0 0 0 0 0 0 0 0 0 0 0 0 0 0 0 0 0 0.25 0"/>
<feBlend mode="normal" in2="shape" result="effect1_innerShadow"/>
</filter>
<filter id="filter3_i" filterUnits="userSpaceOnUse" x="2659" y="1047" width="23" height="83" color-interpolation-filters="sRGB">
<feFlood flood-opacity="0" result="BackgroundImageFix"/>
<feBlend mode="normal" in="SourceGraphic" in2="BackgroundImageFix" result="shape"/>
<feColorMatrix in="SourceAlpha" type="matrix" values="0 0 0 0 0 0 0 0 0 0 0 0 0 0 0 0 0 0 255 0" result="hardAlpha"/>
<feOffset dx="0" dy="4"/>
<feGaussianBlur stdDeviation="2"/>
<feComposite in2="hardAlpha" operator="arithmetic" k2="-1" k3="1"/>
<feColorMatrix type="matrix" values="0 0 0 0 0 0 0 0 0 0 0 0 0 0 0 0 0 0 0.25 0"/>
<feBlend mode="normal" in2="shape" result="effect1_innerShadow"/>
</filter>
<linearGradient id="paint0_linear" x1="0" y1="0" x2="1" y2="0" gradientUnits="userSpaceOnUse" gradientTransform="matrix(1.12571e-13 115.567 -115.567 7.07641e-15 146.096 61.0594)">
<stop offset="0" stop-color="#47ACF5"/>
<stop offset="1" stop-color="#136C9E"/>
</linearGradient>
<linearGradient id="paint1_linear" x1="0" y1="0" x2="1" y2="0" gradientUnits="userSpaceOnUse" gradientTransform="matrix(-6.03895e-14 134.626 -134.626 8.24346e-15 155.626 42)">
<stop offset="0" stop-color="#FFFFFF" stop-opacity="0.3"/>
<stop offset="1" stop-color="#065778"/>
</linearGradient>
<linearGradient id="paint2_linear" x1="0" y1="0" x2="1" y2="0" gradientUnits="userSpaceOnUse" gradientTransform="matrix(-4.84535e-13 42.06 -63.9246 -9.42775e-13 75.4773 30.802)">
<stop offset="0" stop-color="#FFFFFF"/>
<stop offset="1" stop-color="#DBDBDB"/>
</linearGradient>
<linearGradient id="paint3_linear" x1="0" y1="0" x2="1" y2="0" gradientUnits="userSpaceOnUse" gradientTransform="matrix(-4.84535e-13 42.06 -63.9246 -9.42775e-13 75.4773 30.802)">
<stop offset="0" stop-color="#FFFFFF"/>
<stop offset="1" stop-color="#DBDBDB"/>
</linearGradient>
<path id="path0_fill" d="M 0 8C 0 3.58172 3.58172 0 8 0L 168.626 0C 173.044 0 176.626 3.58172 176.626 8L 176.626 168.626C 176.626 173.044 173.044 176.626 168.626 176.626L 8 176.626C 3.58172 176.626 0 173.044 0 168.626L 0 8Z"/>
<path id="path1_fill" fill-rule="evenodd" d="M 8 0C 3.58179 0 0 3.58173 0 8L 0 168.626C 0 173.044 3.58179 176.626 8 176.626L 168.626 176.626C 173.044 176.626 176.626 173.044 176.626 168.626L 176.626 8C 176.626 3.58173 173.044 0 168.626 0L 8 0ZM 8.80688 1.80688C 4.94092 1.80688 1.80688 4.94092 1.80688 8.80688L 1.80688 167.819C 1.80688 171.685 4.94092 174.819 8.80688 174.819L 167.819 174.819C 171.685 174.819 174.819 171.685 174.819 167.819L 174.819 8.80688C 174.819 4.94092 171.685 1.80688 167.819 1.80688L 8.80688 1.80688Z"/>
<path id="path2_fill" d="M 4.88533 56.8621C 3.33698 56.8621 2.13567 56.435 1.2814 55.5807C 0.427133 54.7264 0 53.5518 0 52.0568L 0 5.1256C 0 3.57724 0.453829 2.34923 1.36149 1.44157C 2.32254 0.480525 3.57724 0 5.1256 0C 6.72735 0 7.98205 0.480525 8.88971 1.44157C 9.85076 2.34923 10.3313 3.57724 10.3313 5.1256L 10.3313 48.3728L 32.8359 48.3728C 36.0394 48.3728 37.6411 49.7877 37.6411 52.6175C 37.6411 55.4472 36.0394 56.8621 32.8359 56.8621L 4.88533 56.8621Z"/>
<path id="path3_fill" d="M 62.5233 57.2625C 60.9215 57.2625 59.6401 56.8087 58.6791 55.901C 57.7714 54.94 57.3176 53.6853 57.3176 52.1369L 57.3176 8.88971L 42.7417 8.88971C 39.5382 8.88971 37.9364 7.47483 37.9364 4.64507C 37.9364 1.81532 39.5382 0.400437 42.7417 0.400437L 82.2248 0.400437C 85.4283 0.400437 87.03 1.81532 87.03 4.64507C 87.03 7.47483 85.4283 8.88971 82.2248 8.88971L 67.6489 8.88971L 67.6489 52.1369C 67.6489 53.6853 67.1683 54.94 66.2073 55.901C 65.2996 56.8087 64.0716 57.2625 62.5233 57.2625Z"/>
<path id="path4_fill" d="M 4.34073 78.3988C 3.10052 78.3988 2.06701 78.0445 1.24021 77.3358C 0.413402 76.6271 0 75.5936 0 74.2353C 0 72.8769 0.413402 71.8434 1.24021 71.1347C 2.06701 70.4261 3.10052 70.0717 4.34073 70.0717L 7.17548 70.0717C 8.41569 70.0717 9.33108 69.7469 9.92166 69.0973C 10.5713 68.5067 10.8961 67.5322 10.8961 66.1739L 10.8961 12.2249C 10.8961 10.8666 10.5713 9.89213 9.92166 9.30155C 9.33108 8.65192 8.41569 8.32711 7.17548 8.32711L 4.34073 8.32711C 3.10052 8.32711 2.06701 7.97276 1.24021 7.26407C 0.413402 6.55538 0 5.52188 0 4.16355C 0 2.80523 0.413402 1.77172 1.24021 1.06303C 2.06701 0.354345 3.10052 0 4.34073 0L 10.9847 0C 14.41 0 17.0381 0.94492 18.8689 2.83476C 20.7587 4.7246 21.7036 7.35266 21.7036 10.7189L 21.7036 67.6799C 21.7036 71.0462 20.7587 73.6742 18.8689 75.5641C 17.0381 77.4539 14.41 78.3988 10.9847 78.3988L 4.34073 78.3988Z"/>
</defs>
</svg>
