<svg viewBox="0 0 59 68" version="1.1" xmlns="http://www.w3.org/2000/svg" xmlns:xlink="http://www.w3.org/1999/xlink">
<title>new-note</title>
<desc>Created using Figma</desc>
<g id="Canvas" transform="translate(-2414 2576)">
<g id="new-note">
<g id="Rectangle 2">
<use xlink:href="#path0_fill" transform="translate(2417 -2563)" fill="#E0E0E0"/>
</g>
<g id="Ellipse">
<use xlink:href="#path1_fill" transform="translate(2433.58 -2545.55)" fill="#828282"/>
</g>
<g id="Ellipse">
<use xlink:href="#path1_fill" transform="translate(2433.58 -2537.1)" fill="#828282"/>
</g>
<g id="Ellipse">
<use xlink:href="#path1_fill" transform="translate(2433.58 -2528.64)" fill="#828282"/>
</g>
<g id="Rectangle">
<use xlink:href="#path2_stroke" transform="translate(2417 -2563)" fill="#BDBDBD"/>
</g>
<g id="plus">
<g id="Vector">
<use xlink:href="#path3_stroke" transform="translate(2449.5 -2563)" fill="#2D9CDB"/>
</g>
<g id="Vector">
<use xlink:href="#path3_stroke" transform="matrix(-1.83697e-16 -1 1 -1.83697e-16 2460 -2552.5)" fill="#2D9CDB"/>
</g>
</g>
<g id="Vector">
<use xlink:href="#path4_stroke" transform="translate(2421.78 -2543.58)" fill="#828282"/>
</g>
<g id="Vector">
<use xlink:href="#path5_stroke" transform="translate(2438.85 -2543.58)"/>
</g>
</g>
</g>
<defs>
<path id="path0_fill" d="M 0 0L 18.4163 0L 18.4163 52L 0 52L 0 0Z"/>
<path id="path1_fill" d="M 3.94851 1.97425C 3.94851 3.0646 3.0646 3.94851 1.97425 3.94851C 0.883903 3.94851 0 3.0646 0 1.97425C 0 0.883903 0.883903 0 1.97425 0C 3.0646 0 3.94851 0.883903 3.94851 1.97425Z"/>
<path id="path2_stroke" d="M 43 52L 43 54.5L 45.5 54.5L 45.5 52L 43 52ZM 0 52L -2.5 52L -2.5 54.5L 0 54.5L 0 52ZM 0 0L 0 -2.5L -2.5 -2.5L -2.5 0L 0 0ZM 23.2433 2.5C 24.624 2.5 25.7433 1.38071 25.7433 0C 25.7433 -1.38071 24.624 -2.5 23.2433 -2.5L 23.2433 2.5ZM 45.5 19.4103C 45.5 18.0296 44.3807 16.9103 43 16.9103C 41.6193 16.9103 40.5 18.0296 40.5 19.4103L 45.5 19.4103ZM 43 49.5L 0 49.5L 0 54.5L 43 54.5L 43 49.5ZM 2.5 52L 2.5 0L -2.5 0L -2.5 52L 2.5 52ZM 0 2.5L 23.2433 2.5L 23.2433 -2.5L 0 -2.5L 0 2.5ZM 40.5 19.4103L 40.5 52L 45.5 52L 45.5 19.4103L 40.5 19.4103Z"/>
<path id="path3_stroke" d="M 0 -2.5C -1.38071 -2.5 -2.5 -1.38071 -2.5 0C -2.5 1.38071 -1.38071 2.5 0 2.5L 0 -2.5ZM 21 2.5C 22.3807 2.5 23.5 1.38071 23.5 0C 23.5 -1.38071 22.3807 -2.5 21 -2.5L 21 2.5ZM 0 2.5L 21 2.5L 21 -2.5L 0 -2.5L 0 2.5Z"/>
<path id="path4_stroke" d="M 0 10.6223L 10.4777 10.6223L 10.4777 6.6223L 0 6.6223L 0 10.6223ZM 0 18.9172L 10.4777 18.9172L 10.4777 14.9172L 0 14.9172L 0 18.9172ZM 0 2L 10.4777 2L 10.4777 -2L 0 -2L 0 2ZM 0 10.6223L 10.4777 10.6223L 10.4777 6.6223L 0 6.6223L 0 10.6223ZM 0 18.9172L 10.4777 18.9172L 10.4777 14.9172L 0 14.9172L 0 18.9172ZM 0 2L 10.4777 2L 10.4777 -2L 0 -2L 0 2Z"/>
<path id="path5_stroke" d="M 0 10.6223L 16.5622 10.6223L 16.5622 6.6223L 0 6.6223L 0 10.6223ZM 0 18.9172L 16.5622 18.9172L 16.5622 14.9172L 0 14.9172L 0 18.9172ZM 0 2L 16.5622 2L 16.5622 -2L 0 -2L 0 2ZM 0 10.6223L 16.5622 10.6223L 16.5622 6.6223L 0 6.6223L 0 10.6223ZM 0 18.9172L 16.5622 18.9172L 16.5622 14.9172L 0 14.9172L 0 18.9172ZM 0 2L 16.5622 2L 16.5622 -2L 0 -2L 0 2Z"/>
</defs>
</svg>
