<svg viewBox="0 0 64 64" version="1.1" xmlns="http://www.w3.org/2000/svg" xmlns:xlink="http://www.w3.org/1999/xlink">
<title>pause-button</title>
<desc>Created using Figma</desc>
<g id="Canvas" transform="translate(136 176)">
<g id="pause-button">
<g id="Ellipse">
<use xlink:href="#path0_fill" transform="translate(-136 -176)" fill="#C21919"/>
</g>
<g id="Component">
<g id="Rectangle">
<use xlink:href="#path1_fill" transform="translate(-113 -160)" fill="#FFFFFF"/>
</g>
<g id="Rectangle">
<use xlink:href="#path1_fill" transform="translate(-100 -160)" fill="#FFFFFF"/>
</g>
</g>
</g>
</g>
<defs>
<path id="path0_fill" d="M 64 32C 64 49.6731 49.6731 64 32 64C 14.3269 64 0 49.6731 0 32C 0 14.3269 14.3269 0 32 0C 49.6731 0 64 14.3269 64 32Z"/>
<path id="path1_fill" d="M 0 3C 0 1.34315 1.34315 0 3 0L 3 0C 4.65685 0 6 1.34315 6 3L 6 29C 6 30.6569 4.65685 32 3 32L 3 32C 1.34315 32 0 30.6569 0 29L 0 3Z"/>
</defs>
</svg>
