<svg viewBox="0 0 64 64" version="1.1" xmlns="http://www.w3.org/2000/svg" xmlns:xlink="http://www.w3.org/1999/xlink">
<g id="Canvas" transform="translate(136 176)">
<g id="play-button">
<g id="Ellipse">
<use xlink:href="#path0_fill" transform="translate(-136 -176)" fill="#C21919"/>
</g>
<g id="Polygon">
<use xlink:href="#path1_fill" transform="matrix(6.12323e-17 1 -1 6.12323e-17 -84 -164)" fill="#FFFFFF"/>
</g>
</g>
</g>
<defs>
<path id="path0_fill" d="M 64 32C 64 49.6731 49.6731 64 32 64C 14.3269 64 0 49.6731 0 32C 0 14.3269 14.3269 0 32 0C 49.6731 0 64 14.3269 64 32Z"/>
<path id="path1_fill" d="M 18.268 3C 19.0378 1.66667 20.9623 1.66667 21.7321 3L 35.5885 27C 36.3583 28.3333 35.396 30 33.8564 30L 6.14359 30C 4.60399 30 3.64174 28.3333 4.41154 27L 18.268 3Z"/>
</defs>
</svg>
